<svg id="a-venir-icon" version="1.1" xmlns="http://www.w3.org/2000/svg" xmlns:xlink="http://www.w3.org/1999/xlink" width="100%" height="100%" viewBox="0 0 200 200" xml:space="preserve">
	<g fill="#f0ab00">
		<circle cx="100" cy="100" r="100"/>
	</g>	
	<g fill="#FFFFFF">
		<path d="M56.427,115.504H51.2l-2.091-6.596H39.55l-1.975,6.596H32.45l9.299-29.122h5.106L56.427,115.504z
			M46.971,84.436h-2.9l-4.489-5.939h5.125L46.971,84.436z M47.557,103.982L44.26,93.176l-3.235,10.806H47.557z"/>
			<path d="M74.347,115.504l-8.544-29.122h5.225l6.048,21.553l5.85-21.553h5.125l-8.563,29.122H74.347z"/>
			<path d="M90.495,115.504V86.382h17.719v4.926H95.302v6.456H107.3v4.906H95.302v7.906h13.349v4.926L90.495,115.504
				L90.495,115.504z"/>
				<path d="M112.782,115.504V86.382h4.688l9.772,19.448V86.382h4.489v29.122h-4.847l-9.614-18.991v18.991H112.782
					L112.782,115.504z"/>
					<path d="M136.66,115.504V86.382h4.807v29.122H136.66z"/>
					<path d="M146.096,115.504V86.382h10.15c2.595,0,4.449,0.262,5.562,0.785s2.026,1.43,2.741,2.721
						s1.073,2.837,1.073,4.638c0,2.278-0.546,4.112-1.64,5.503c-1.092,1.39-2.645,2.264-4.657,2.622
						c1.033,0.741,1.887,1.553,2.563,2.434s1.596,2.46,2.762,4.737l2.9,5.682h-5.752l-3.489-6.337c-1.256-2.29-2.109-3.724-2.559-4.301
						c-0.45-0.575-0.927-0.973-1.431-1.191c-0.503-0.22-1.311-0.328-2.423-0.328h-0.994v12.156L146.096,115.504L146.096,115.504z
						M150.902,98.698h3.576c2.185,0,3.575-0.096,4.172-0.288c0.596-0.192,1.079-0.579,1.449-1.162
						c0.371-0.583,0.558-1.357,0.558-2.324c0-0.927-0.187-1.671-0.558-2.235c-0.37-0.563-0.873-0.95-1.509-1.162
						c-0.45-0.146-1.756-0.219-3.914-0.219h-3.774V98.698L150.902,98.698z"/>
					</g>		
				</svg>