<svg id="coming-soon-icon" version="1.1" xmlns="http://www.w3.org/2000/svg" xmlns:xlink="http://www.w3.org/1999/xlink" width="100%" height="100%" viewBox="0 0 200 200" xml:space="preserve">
  <g fill="#f0ab00">
    <circle cx="100" cy="100" r="100" />
  </g>
 <g fill="#fff">
                      <path d="M22.854,101.362l3.442,1.333c-0.537,2.402-1.431,4.158-2.681,5.267s-2.788,1.662-4.614,1.662
                      c-2.295,0-4.155-0.884-5.581-2.651c-1.641-2.041-2.461-4.795-2.461-8.262c0-3.662,0.826-6.528,2.478-8.599
                      c1.437-1.797,3.367-2.695,5.792-2.695c1.975,0,3.626,0.674,4.956,2.021c0.948,0.957,1.642,2.378,2.082,4.263l-3.516,1.025
                      c-0.225-1.162-0.673-2.053-1.343-2.673c-0.67-0.62-1.46-0.931-2.37-0.931c-1.301,0-2.363,0.566-3.185,1.699
                      s-1.232,3.003-1.232,5.61c0,2.705,0.4,4.629,1.201,5.771s1.841,1.714,3.12,1.714c0.938,0,1.748-0.363,2.432-1.091
                      S22.551,102.944,22.854,101.362z"/>
                      <path d="M28.611,98.652c0-2.559,0.378-4.665,1.135-6.321c0.757-1.654,1.746-2.888,2.966-3.698s2.7-1.216,4.438-1.216
                      c2.52,0,4.573,0.962,6.16,2.886s2.38,4.663,2.38,8.218c0,3.594-0.84,6.401-2.52,8.423c-1.475,1.787-3.477,2.681-6.006,2.681
                      c-2.549,0-4.561-0.884-6.035-2.651C29.451,104.951,28.611,102.178,28.611,98.652z M32.273,98.506c0,2.471,0.469,4.324,1.408,5.56
                      s2.103,1.853,3.492,1.853c1.398,0,2.558-0.612,3.477-1.839c0.919-1.225,1.379-3.107,1.379-5.646c0-2.49-0.447-4.331-1.342-5.522
                      s-2.066-1.787-3.514-1.787s-2.626,0.601-3.536,1.802S32.273,95.986,32.273,98.506z"/>
                      <path d="M48.43,109.258V87.783h5.316l3.202,14.663l3.176-14.663h5.342v21.475h-3.311V92.339l-3.51,16.919h-3.42l-3.484-16.919
                      v16.919H48.43z"/>
                      <path d="M68.865,109.258V87.783h3.545v21.475H68.865z"/>
                      <path d="M75.852,109.258V87.783h3.457l7.207,14.341V87.783h3.311v21.475h-3.574l-7.09-14.004v14.004H75.852z"/>
                      <path d="M101.766,101.377v-3.633h7.66v8.555c-0.771,0.908-1.865,1.689-3.281,2.344s-2.836,0.981-4.262,0.981
                      c-1.739,0-3.272-0.427-4.6-1.281s-2.38-2.134-3.157-3.838s-1.165-3.709-1.165-6.014c0-2.363,0.393-4.385,1.179-6.064
                      s1.807-2.935,3.062-3.765s2.756-1.245,4.505-1.245c2.1,0,3.781,0.535,5.046,1.604c1.265,1.07,2.077,2.64,2.438,4.71l-3.516,0.806
                      c-0.264-1.104-0.746-1.948-1.449-2.534s-1.543-0.879-2.52-0.879c-1.514,0-2.74,0.589-3.677,1.765
                      c-0.938,1.178-1.406,2.972-1.406,5.384c0,2.588,0.508,4.556,1.523,5.903c0.869,1.162,2.046,1.743,3.531,1.743
                      c0.693,0,1.413-0.163,2.16-0.489s1.414-0.771,2-1.336v-2.716H101.766z"/>
                      <path d="M118.654,102.256l3.473-0.41c0.391,2.744,1.67,4.116,3.838,4.116c1.074,0,1.918-0.28,2.533-0.842s0.924-1.257,0.924-2.087
                      c0-0.488-0.107-0.902-0.322-1.244s-0.543-0.622-0.982-0.842s-1.504-0.588-3.193-1.104c-1.514-0.458-2.621-0.956-3.324-1.492
                      c-0.703-0.537-1.263-1.241-1.678-2.115c-0.415-0.873-0.623-1.813-0.623-2.817c0-1.171,0.267-2.225,0.799-3.161
                      s1.268-1.645,2.205-2.122c0.938-0.479,2.094-0.718,3.471-0.718c2.07,0,3.688,0.562,4.85,1.685s1.777,2.729,1.846,4.819
                      l-3.561,0.19c-0.156-1.152-0.492-1.958-1.01-2.417s-1.256-0.688-2.213-0.688s-1.693,0.199-2.211,0.599s-0.777,0.896-0.777,1.489
                      c0,0.585,0.235,1.076,0.705,1.476c0.47,0.398,1.549,0.838,3.238,1.316c1.787,0.518,3.078,1.063,3.873,1.634
                      c0.796,0.571,1.403,1.309,1.822,2.212c0.42,0.902,0.631,1.999,0.631,3.287c0,1.865-0.574,3.433-1.722,4.701
                      c-1.147,1.27-2.942,1.904-5.384,1.904C121.545,109.624,119.143,107.168,118.654,102.256z"/>
                      <path d="M135.236,98.652c0-2.559,0.379-4.665,1.136-6.321c0.757-1.654,1.745-2.888,2.966-3.698s2.701-1.216,4.439-1.216
                      c2.52,0,4.572,0.962,6.159,2.886s2.38,4.663,2.38,8.218c0,3.594-0.84,6.401-2.52,8.423c-1.475,1.787-3.477,2.681-6.006,2.681
                      c-2.549,0-4.561-0.884-6.035-2.651C136.076,104.951,135.236,102.178,135.236,98.652z M138.898,98.506
                      c0,2.471,0.47,4.324,1.408,5.56c0.939,1.235,2.104,1.853,3.492,1.853c1.398,0,2.558-0.612,3.477-1.839
                      c0.92-1.225,1.379-3.107,1.379-5.646c0-2.49-0.447-4.331-1.342-5.522s-2.066-1.787-3.514-1.787s-2.626,0.601-3.535,1.802
                      C139.354,94.126,138.898,95.986,138.898,98.506z"/>
                      <path d="M154.383,98.652c0-2.559,0.378-4.665,1.135-6.321c0.757-1.654,1.746-2.888,2.967-3.698s2.699-1.216,4.438-1.216
                      c2.52,0,4.573,0.962,6.16,2.886s2.381,4.663,2.381,8.218c0,3.594-0.84,6.401-2.52,8.423c-1.475,1.787-3.477,2.681-6.006,2.681
                      c-2.549,0-4.561-0.884-6.035-2.651C155.223,104.951,154.383,102.178,154.383,98.652z M158.045,98.506
                      c0,2.471,0.469,4.324,1.408,5.56c0.938,1.235,2.103,1.853,3.491,1.853c1.398,0,2.558-0.612,3.478-1.839
                      c0.918-1.225,1.379-3.107,1.379-5.646c0-2.49-0.447-4.331-1.343-5.522s-2.066-1.787-3.514-1.787s-2.626,0.601-3.536,1.802
                      C158.499,94.126,158.045,95.986,158.045,98.506z"/>
                      <path d="M174.289,109.258V87.783h3.457l7.207,14.341V87.783h3.311v21.475h-3.574l-7.09-14.004v14.004H174.289z"/>
                    </g>
  </svg>