<svg id="download-icon" version="1.1" xmlns="http://www.w3.org/2000/svg" xmlns:xlink="http://www.w3.org/1999/xlink" width="70%" height="70%" viewBox="0 0 200 200" xml:space="preserve">
  <g fill="rgba(200,200,200,0.6)">
    <circle cx="100" cy="100" r="100" />
  </g>
  <g fill="#fff">
    <path d="M153.302,82.655c-1.548,0-3.04,0.231-4.447,0.657c-2.662-10.393-9.082-18.078-23.312-18.078
      c-1.513,0-2.989,0.146-4.424,0.413c-5.068-13.144-17.819-22.471-32.75-22.471c-19.381,0-35.09,15.711-35.09,35.09
      c0,0.186,0.003,0.371,0.007,0.555c-1.403-0.362-2.876-0.555-4.393-0.555c-9.69,0.001-17.546,7.857-17.546,17.547
      c0,9.691,7.856,17.545,17.545,17.545c0.126,0,0.25-0.006,0.375-0.01v0.01h39.291V79.032h22.885v34.327H153.6v-0.008
      c8.341-0.159,15.055-6.965,15.055-15.345C168.654,89.529,161.779,82.655,153.302,82.655z"/>
      <polygon points="107.628,120.733 107.628,82.846 92.372,82.846 92.372,120.733 80.93,120.733 100,151.5 
        119.07,120.733"/>
      </g>
    </svg>