<svg id="map-icon" version="1.1" xmlns="http://www.w3.org/2000/svg" xmlns:xlink="http://www.w3.org/1999/xlink" width="100%" height="100%" viewBox="0 0 200 200" xml:space="preserve">
  <g fill="#f0ab00">
    <circle cx="100" cy="100" r="100" />
  </g>
  <g fill="#fff">
    <path d="M45.857,60.602l-4.165,77.847l28.304-7.559l4.164-77.848L45.857,60.602z M99.237,63.447v74.793
    l-27.514-7.356L75.87,52.95l20.346,3.159C96.933,58.37,97.996,60.878,99.237,63.447z M158.309,138.449l-28.305-7.559
    l-3.443-64.366c2.215-4.219,4.117-8.47,5.008-11.952l22.576,6.029L158.309,138.449z M109.217,55.265l10.016-1.555
    c-1.021,2.039-3.126,3.446-5.558,3.446C111.927,57.156,110.349,56.429,109.217,55.265z M125.005,69.399
    c-4.163,7.479-8.778,14.239-9.685,15.55l-1.646,2.382l-1.646-2.382c-1.022-1.481-6.775-9.905-11.266-18.471v71.762l27.514-7.356
    L125.005,69.399z M113.675,95.652c-5.876,0-10.642-1.246-10.642-2.781s4.766-2.781,10.642-2.781s10.64,1.246,10.64,2.781
    S119.551,95.652,113.675,95.652z"/>
    <path d="M113.675,34.5c-9.077,0-16.438,7.36-16.438,16.438c0,9.079,16.438,32.875,16.438,32.875
    s16.437-23.797,16.437-32.875S122.751,34.5,113.675,34.5z M113.675,59.156c-4.538,0-8.22-3.68-8.22-8.218
    c0-4.54,3.682-8.219,8.22-8.219s8.218,3.679,8.218,8.219S118.213,59.156,113.675,59.156z"/>
  </g>
</svg>