<svg id="proximamente-icon" version="1.1" xmlns="http://www.w3.org/2000/svg" xmlns:xlink="http://www.w3.org/1999/xlink" width="100%" height="100%" viewBox="500 300 200 200" enable-background="new 500 300 200 200" xml:space="preserve">
  <g fill="#f0ab00">
	<circle cx="600" cy="400" r="100"/>
</g>
  <g fill="#fff">
	<path d="M512.5,408.85v-20.897h5.052c1.883,0,3.113,0.1,3.692,0.299c0.924,0.323,1.686,1.012,2.286,2.067
		c0.601,1.054,0.9,2.413,0.9,4.077c0,1.511-0.259,2.778-0.777,3.799c-0.518,1.021-1.166,1.739-1.943,2.152
		c-0.777,0.414-2.116,0.62-4.016,0.62h-2.06v7.883H512.5L512.5,408.85z M515.635,391.488v5.944h1.74c1.168,0,1.963-0.09,2.383-0.271
		s0.764-0.507,1.032-0.979c0.269-0.471,0.403-1.05,0.403-1.736c0-0.695-0.139-1.281-0.416-1.757s-0.619-0.795-1.025-0.958
		c-0.407-0.162-1.269-0.243-2.584-0.243H515.635z"/>
	<path d="M527.022,408.85v-20.897h6.62c1.692,0,2.902,0.188,3.627,0.563c0.726,0.375,1.321,1.026,1.788,1.953
		c0.467,0.927,0.7,2.036,0.7,3.329c0,1.634-0.356,2.95-1.068,3.948c-0.713,0.998-1.725,1.626-3.038,1.882
		c0.674,0.532,1.231,1.115,1.671,1.746c0.44,0.632,1.04,1.766,1.8,3.399l1.891,4.077h-3.75l-2.275-4.547
		c-0.819-1.644-1.375-2.672-1.669-3.086s-0.604-0.699-0.933-0.855s-0.854-0.236-1.58-0.236h-0.648v8.724H527.022L527.022,408.85z
		 M530.156,396.791h2.332c1.425,0,2.332-0.069,2.721-0.207s0.704-0.415,0.946-0.834c0.242-0.418,0.363-0.975,0.363-1.668
		c0-0.665-0.121-1.199-0.363-1.604s-0.57-0.682-0.984-0.834c-0.294-0.105-1.144-0.157-2.552-0.157h-2.461L530.156,396.791
		L530.156,396.791z"/>
	<path d="M542.075,398.53c0-2.491,0.334-4.541,1.004-6.151c0.669-1.611,1.543-2.811,2.623-3.599
		s2.388-1.184,3.925-1.184c2.228,0,4.044,0.936,5.447,2.809c1.403,1.872,2.105,4.538,2.105,7.996c0,3.498-0.743,6.23-2.228,8.197
		c-1.305,1.738-3.075,2.608-5.312,2.608c-2.253,0-4.033-0.86-5.337-2.58C542.817,404.659,542.075,401.961,542.075,398.53z
		 M545.313,398.388c0,2.403,0.415,4.207,1.246,5.409c0.83,1.202,1.859,1.803,3.088,1.803c1.237,0,2.262-0.596,3.075-1.789
		c0.813-1.191,1.219-3.023,1.219-5.495c0-2.423-0.395-4.214-1.187-5.374c-0.792-1.159-1.827-1.739-3.107-1.739
		c-1.28,0-2.322,0.584-3.126,1.753C545.715,394.125,545.313,395.936,545.313,398.388z M547.969,386.556l1.468-4.262h3.364
		l-2.935,4.262H547.969z"/>
	<path d="M558.073,408.85l5.383-10.876l-4.891-10.021h3.674l3.086,6.251l3.101-6.251h3.637l-4.889,9.997l5.381,10.9
		h-3.792l-3.457-7.082l-3.464,7.082H558.073L558.073,408.85z"/>
	<path d="M574.06,408.85v-20.897h3.134v20.897H574.06z"/>
	<path d="M580.16,408.85v-20.897h4.702l2.832,14.268l2.809-14.268h4.725v20.897h-2.928v-16.464l-3.104,16.464h-3.025
		l-3.082-16.464v16.464H580.16z"/>
	<path d="M612.378,408.85h-3.408l-1.363-4.732h-6.234l-1.288,4.732h-3.342l6.065-20.897h3.329L612.378,408.85z
		 M606.593,400.582l-2.149-7.754l-2.11,7.754H606.593z"/>
	<path d="M613.984,408.85v-20.897h4.701l2.832,14.268l2.809-14.268h4.724v20.897h-2.928v-16.464l-3.104,16.464
		h-3.024l-3.081-16.464v16.464H613.984z"/>
	<path d="M632.159,408.85v-20.897h11.555v3.535h-8.421v4.633h7.826v3.521h-7.826v5.673h8.706v3.535H632.159z"/>
	<path d="M646.694,408.85v-20.897h3.057l6.374,13.956v-13.956h2.928v20.897h-3.16l-6.271-13.627v13.627H646.694z"/>
	<path d="M665.866,408.85v-17.362h-4.624v-3.535h12.371v3.535h-4.612v17.362H665.866z"/>
	<path d="M675.66,408.85v-20.897h11.555v3.535h-8.42v4.633h7.824v3.521h-7.824v5.673h8.705v3.535H675.66z"/>
</g>
</svg>
