<svg id="tutorial-icon" version="1.1" xmlns="http://www.w3.org/2000/svg" xmlns:xlink="http://www.w3.org/1999/xlink" width="100%" height="100%" viewBox="0 0 200 200" xml:space="preserve">
    <g fill="rgba(200,200,200,0.6)">
      <circle cx="100" cy="100" r="100" />
  </g>
  <g fill="#fff">
   <path d="M44.96,107.095c0.005,1.022,0.274,2.159,0.697,3.045c1.188,2.48,4.385,2.962,5.957,0.417
   c0.658-1.063,0.932-2.222,0.93-3.557c-0.021-6.692-0.013-13.388-0.013-20.086c0-0.836-0.021-1.672,0.009-2.51
   c0.04-1.056,0.209-1.169,1.129-1.192c0.73-0.022,1.016,0.363,0.943,1.237c-0.017,0.193-0.005,0.394-0.005,0.59
   c0,9.069,0,21.572,0,37.514c-0.005,2.857,0,7.587-0.005,10.442c-0.001,9.208-0.007,2.069-0.001,11.276
   c0.001,0.979-0.096,2.045,0.163,2.927c1.259,4.257,4.887,5.402,7.632,3.22c1.683-1.344,2.198-3.445,2.196-5.843
   c-0.015-15.508-0.009-19.981-0.009-35.487c0-0.348-0.014-0.692,0.003-1.037c0.05-1.024,0.293-1.256,1.108-1.276
   c0.737-0.016,0.841,0.529,0.835,1.244c-0.005,0.441,0.003,0.886,0.003,1.328c0,15.361,0,19.688,0.002,35.047
   c0,1.076,0.054,2.106,0.411,3.157c0.785,2.311,2.161,3.62,4.102,3.848c2.171,0.252,3.9-0.751,4.972-3.279
   c0.609-1.442,0.515-2.962,0.515-4.472c0.008-27.51-0.002-37.116-0.005-57.754c0-0.591-0.011-1.185,0.028-1.773
   c0.021-0.268,0.129-0.73,0.239-0.749c0.536-0.096,1.113-0.197,1.619-0.035c0.208,0.063,0.381,0.791,0.387,1.221
   c0.041,2.114,0.012,4.233,0.018,6.348c0.002,1.26,0.255,2.349,0.981,3.355c1.064,1.473,3.569,1.615,5.136,0.291
   c3.456-2.919,6.921-5.813,10.4-8.687c1.478-1.218,2.159-2.876,1.792-5.024c-0.176-1.034,0.135-1.548,0.753-2.047
   c1.443-1.174,2.869-2.384,4.299-3.582c3.555-2.984,7.109-5.966,10.659-8.953c0.775-0.655,1.546-1.321,2.295-2.018
   c0.702-0.655,0.753-1.021,0.327-1.686c-0.444-0.688-0.72-0.698-1.397-0.12c-2.337,2-4.679,3.986-7.021,5.975
   c-3.118,2.648-6.235,5.3-9.36,7.941c-0.451,0.381-0.952,0.678-1.396,1.073c-0.427,0.38-0.755,0.352-1.28,0.138
   c-1.298-0.523-2.606-0.571-3.82,0.563c-1.319,1.228-2.702,2.351-4.077,3.484c-0.611,0.505-0.782,0.366-0.87-0.561
   c-0.699-7.38-4.848-10.399-9.367-11.312c-2.166-0.44-4.43-0.134-6.647-0.175c-0.578-0.014-12.53,0.04-14.073,0.001
   c-1.848-0.042-3.592,0.428-5.288,1.3c-4.183,2.158-5.773,5.884-5.878,10.39C44.79,89.855,44.906,98.479,44.96,107.095z"/>
   <path d="M84.764,99.888c0.073,1.166,0.047,2.358,0.295,3.481c0.108,0.514,0.684,1.082,1.175,1.296
   c0.73,0.313,1.571,0.459,2.36,0.461c19.254,0.02,42.278-0.006,61.531,0.043c1.837,0.006,3.274-1.342,3.272-3.583
   c-0.031-15.259-0.018-30.521-0.031-45.784c0-0.478-0.065-0.978-0.208-1.427c-0.474-1.509-1.479-2.049-2.948-2.042
   c-9.718,0.042-23.207,0.022-32.924,0.022c-9.811,0-19.619-0.003-29.428,0.006c-2.146,0.004-3.083,1.021-3.088,3.305
   c-0.006,4.627,0.017,9.254-0.026,13.883c-0.006,0.891,0.232,1.578,0.727,2.276c0.799,1.122,1.501,2.321,2.251,3.485
   c0.194,0.294,0.439,0.824,0.607,0.801c0.353-0.049,0.786-0.317,0.969-0.635c0.224-0.388,0.291-0.924,0.305-1.396
   c0.039-1.476,0.019-2.956,0.019-4.43c0-3.547-0.007-7.09,0.009-10.636c0.005-1.262,0.105-1.35,1.224-1.4
   c0.179-0.008,0.362-0.002,0.547-0.002c17.199-0.003,38.17-0.003,55.371-0.003c1.72,0,1.72,0.006,1.729,1.908
   c0.001,0.246,0,0.492,0,0.737c0,12.162,0.001,24.321,0.003,36.48c0,0.691-0.003,1.379,0,2.07c0.003,0.708-0.268,1.121-0.979,1.082
   c-0.272-0.014-0.546,0.006-0.819,0.006c-17.065,0-37.899,0-54.963,0c-0.366,0-0.729-0.019-1.095-0.002
   c-0.768,0.039-1.06-0.368-1.037-1.168c0.024-0.786,0.035-1.58-0.049-2.357c-0.087-0.795-0.357-0.905-0.984-0.472
   c-0.688,0.471-1.346,0.997-2.032,1.479C85.677,97.987,84.673,98.484,84.764,99.888z"/>
   <path d="M74.385,58.103c-0.079-6.271-4.615-9.645-9.104-9.583
   c-4.999,0.068-9.171,3.572-9.193,9.439c-0.244,5.518,4.275,9.628,9.049,9.631C70.054,67.592,74.453,63.502,74.385,58.103z"/>
</g>
</svg>